<svg width="52.000000" height="39.000000" viewBox="0 0 52 39" fill="none" xmlns="http://www.w3.org/2000/svg" xmlns:xlink="http://www.w3.org/1999/xlink">
	<desc>
			Created with Pixso.
	</desc>
	<defs>
		<clipPath id="clip111_12">
			<rect id="画板 1" width="52.000000" height="39.000000" fill="white" fill-opacity="0"/>
		</clipPath>
	</defs>
	<rect width="52.000000" height="39.000000" fill="#EFEFEF"/>
	<rect id="画板 1" width="52.000000" height="39.000000" fill="#FFFFFF" fill-opacity="0"/>
	<g clip-path="url(#clip111_12)">
		<path id="L" d="M3.37 37.81Q3.56 38 4.5 38Q14.25 38.18 18.18 37.25Q18.86 36.97 19.05 36.51Q19.12 36.33 19.12 36.12Q19.31 33.68 18.56 32Q18.13 31.42 17.59 31.29Q17.42 31.25 17.25 31.25L17.06 31.25L17.06 31.06Q16.63 30.48 16.09 30.35Q15.92 30.31 15.75 30.31L14.43 30.31Q13.12 30.31 12.37 30.5Q12 30.68 10.31 30.68L8.81 30.68Q8.81 26.37 9.37 14.37L9.75 9.5Q9.75 9.02 9.53 8.7Q9.14 8.12 8.06 8Q8.02 7.89 7.97 7.8Q7.47 6.87 5.25 6.87Q2.43 6.87 1.96 7.92Q1.87 8.12 1.87 8.37L1.5 12.87L0.93 25.25Q0.75 28.62 0.75 32.93Q0.75 35.37 1.12 36.12Q1.31 36.5 1.87 36.87L2.62 37.06Q2.81 37.43 3.37 37.81ZM16.5 35.18Q12.37 36.31 2.25 35.93Q1.87 35.56 1.87 32.93Q1.87 28.62 2.06 25.25L2.62 12.87L3 8.37Q3 8.36 3 8.35Q3.06 8 5.25 8Q6.97 8 7.11 8.47Q7.12 8.51 7.12 8.56L6.75 13.43Q5.81 30.31 6.18 31.81L10.31 31.81Q12.18 31.81 12.75 31.62Q13.31 31.43 14.43 31.43L15.93 31.43Q16.5 32.56 16.5 34.06L16.5 35.18Z" fill="#000000" fill-opacity="1.000000" fill-rule="evenodd"/>
		<path id="Y (边框)" d="M24.61 35.34C24.31 35.19 24.04 34.94 23.82 34.61C23.23 34.58 22.78 34.4 22.46 34.09C22.11 33.74 21.94 33.22 21.93 32.53L21.01 18.15C20.8 17.99 20.61 17.78 20.43 17.51L13.1 7.74C12.77 7.19 12.61 6.63 12.68 6.13C12.74 5.66 12.99 5.21 13.41 4.79L14.89 3.49C15.32 2.98 16.26 2.46 17.72 1.93L17.88 1.87L18.06 1.87C18.68 1.87 19.22 2 19.68 2.27C19.89 2.39 20.09 2.55 20.27 2.73L20.38 2.84C20.48 2.86 20.6 2.93 20.7 2.97C21.09 3.11 21.44 3.34 21.77 3.66L25.67 9.1L29.05 3.42L30.02 2.2L30.3 2.11C30.83 1.93 31.42 1.92 32.06 2.06C32.4 2.09 32.81 2.19 33.13 2.35C33.34 2.45 33.61 2.56 33.94 2.67L34.16 2.75L34.88 3.47L35.63 3.65L36.71 4.74L37.46 5.3L38.06 5.89L38.37 6.83L38.37 7C38.37 7.81 38.19 8.49 37.84 9.03L31.27 19.8L32.18 32.27C32.18 32.75 32.09 33.22 31.9 33.6C31.7 33.98 31.42 34.32 31.03 34.61C29.6 35.47 27.69 35.82 25.49 35.56C25.16 35.55 24.87 35.48 24.61 35.34ZM25.56 34.56C25.42 34.56 25.29 34.53 25.17 34.49C24.86 34.36 24.61 34.07 24.43 33.62L24.06 33.62C23.68 33.62 23.4 33.53 23.21 33.34C23.03 33.15 22.93 32.87 22.93 32.5L22 17.87L22 17.5C21.75 17.5 21.5 17.31 21.25 16.93L13.93 7.18C13.74 6.86 13.66 6.55 13.7 6.26C13.74 5.99 13.88 5.73 14.12 5.5L15.62 4.18C15.87 3.81 16.68 3.37 18.06 2.87C18.54 2.87 18.95 2.98 19.28 3.2C19.38 3.27 19.47 3.35 19.56 3.43L19.75 3.81C19.95 3.81 20.14 3.84 20.32 3.9C20.59 3.99 20.83 4.14 21.06 4.37L25.75 10.93L29.87 4L30.62 3.06C31 2.93 31.43 2.93 31.93 3.06C32.18 3.06 32.43 3.12 32.68 3.25C32.93 3.37 33.25 3.5 33.62 3.62L34.37 4.37L35.12 4.56L36.06 5.5L36.81 6.06L37.18 6.43L37.37 7C37.37 7.62 37.25 8.12 37 8.5L30.25 19.56L31.18 32.31C31.18 32.62 31.12 32.9 31 33.15C30.87 33.4 30.68 33.62 30.43 33.81C29.18 34.56 27.56 34.81 25.56 34.56ZM22.18 16.37C23.68 15.37 24.62 14.25 25 13L18.43 4C17.43 4.25 16.75 4.56 16.37 4.93L14.87 6.43L22.18 16.37ZM25.18 32.5C26.56 32.5 27.68 32.25 28.56 31.75L27.62 18.43L34.93 6.25L33.43 4.93C32.43 4.31 31.68 4 31.18 4L23.12 17.31L24.06 32.5L25.18 32.5ZM27.51 31.13C26.87 31.37 26.1 31.49 25.18 31.49L25 31.49L24.14 17.56L31.67 5.12C31.97 5.24 32.36 5.44 32.84 5.74L33.64 6.45L26.6 18.19L27.51 31.13ZM23.87 13.15L18.04 5.15C17.57 5.3 17.25 5.47 17.08 5.64L16.19 6.53L22.39 14.97C23.09 14.39 23.58 13.79 23.87 13.15Z" fill="#000000" fill-opacity="1.000000" fill-rule="evenodd"/>
		<path id="L" d="M48.62 37.81Q48.43 38 47.5 38Q37.75 38.18 33.81 37.25Q33.13 36.97 32.94 36.51Q32.87 36.33 32.87 36.12Q32.68 33.68 33.43 32Q33.86 31.42 34.4 31.29Q34.57 31.25 34.75 31.25L34.93 31.25L34.93 31.06Q35.36 30.48 35.9 30.35Q36.07 30.31 36.25 30.31L37.56 30.31Q38.87 30.31 39.62 30.5Q40 30.68 41.68 30.68L43.18 30.68Q43.18 26.37 42.62 14.37L42.25 9.5Q42.25 9.02 42.46 8.7Q42.85 8.12 43.93 8Q43.97 7.89 44.02 7.8Q44.52 6.87 46.75 6.87Q49.56 6.87 50.03 7.92Q50.12 8.12 50.12 8.37L50.5 12.87L51.06 25.25Q51.25 28.62 51.25 32.93Q51.25 35.37 50.87 36.12Q50.68 36.5 50.12 36.87L49.37 37.06Q49.18 37.43 48.62 37.81ZM35.5 35.18Q39.62 36.31 49.75 35.93Q50.12 35.56 50.12 32.93Q50.12 28.62 49.93 25.25L49.37 12.87L49 8.37Q49 8.36 48.99 8.35Q48.93 8 46.75 8Q45.02 8 44.88 8.47Q44.87 8.51 44.87 8.56L45.25 13.43Q46.18 30.31 45.81 31.81L41.68 31.81Q39.81 31.81 39.25 31.62Q38.68 31.43 37.56 31.43L36.06 31.43Q35.5 32.56 35.5 34.06L35.5 35.18Z" fill="#000000" fill-opacity="1.000000" fill-rule="evenodd"/>
	</g>
</svg>
